<?xml version='1.0' encoding='utf-8'?>
<!DOCTYPE svg>
<!-- Generator: Adobe Illustrator 15.1.0, SVG Export Plug-In . SVG Version: 6.00 Build 0)  -->
<svg xmlns="http://www.w3.org/2000/svg" height="0.407986in" gorn="0" xmlns:xml="http://www.w3.org/XML/1998/namespace" viewBox="0 0 72.576 29.375" x="0px" width="1.008in" y="0px" enable-background="new 0 0 72.576 29.375" id="Ebene_1"  version="1.1" xml:space="preserve">
    <desc>
        <referenceFile>sparkfun-led_led_bargaph_10_breadboard.svg</referenceFile>
    </desc>
    <g gorn="0.0" id="breadboard" >
        <circle gorn="0.0.0" fill="none" id="connector0pin"  stroke-width="0.254" cx="3.888" stroke="#9A916C" cy="25.488" r="1.512"/>
        <circle gorn="0.0.1" fill="none" id="connector1pin"  stroke-width="0.254" cx="11.088" stroke="#9A916C" cy="25.488" r="1.512"/>
        <circle gorn="0.0.2" fill="none" id="connector6pin"  stroke-width="0.254" cx="47.088" stroke="#9A916C" cy="25.488" r="1.512"/>
        <circle gorn="0.0.3" fill="none" id="connector7pin"  stroke-width="0.254" cx="54.288" stroke="#9A916C" cy="25.488" r="1.512"/>
        <circle gorn="0.0.4" fill="none" id="connector2pin"  stroke-width="0.254" cx="18.288" stroke="#9A916C" cy="25.488" r="1.512"/>
        <circle gorn="0.0.5" fill="none" id="connector3pin"  stroke-width="0.254" cx="25.488" stroke="#9A916C" cy="25.488" r="1.512"/>
        <circle gorn="0.0.6" fill="none" id="connector5pin"  stroke-width="0.254" cx="39.888" stroke="#9A916C" cy="25.488" r="1.512"/>
        <circle gorn="0.0.7" fill="none" id="connector4pin"  stroke-width="0.254" cx="32.688" stroke="#9A916C" cy="25.488" r="1.512"/>
        <circle gorn="0.0.8" fill="none" id="connector8pin"  stroke-width="0.254" cx="61.487" stroke="#9A916C" cy="25.488" r="1.512"/>
        <circle gorn="0.0.9" fill="none" id="connector9pin"  stroke-width="0.254" cx="68.688" stroke="#9A916C" cy="25.488" r="1.512"/>
        <circle gorn="0.0.10" fill="none" id="connector10pin"  stroke-width="0.254" cx="68.688" stroke="#9A916C" cy="3.888" r="1.512"/>
        <circle gorn="0.0.11" fill="none" id="connector11pin"  stroke-width="0.254" cx="61.487" stroke="#9A916C" cy="3.888" r="1.512"/>
        <circle gorn="0.0.12" fill="none" id="connector12pin"  stroke-width="0.254" cx="54.288" stroke="#9A916C" cy="3.888" r="1.512"/>
        <circle gorn="0.0.13" fill="none" id="connector13pin"  stroke-width="0.254" cx="47.088" stroke="#9A916C" cy="3.888" r="1.512"/>
        <circle gorn="0.0.14" fill="none" id="connector14pin"  stroke-width="0.254" cx="39.888" stroke="#9A916C" cy="3.888" r="1.512"/>
        <circle gorn="0.0.15" fill="none" id="connector15pin"  stroke-width="0.254" cx="32.688" stroke="#9A916C" cy="3.888" r="1.512"/>
        <circle gorn="0.0.16" fill="none" id="connector16pin"  stroke-width="0.254" cx="25.488" stroke="#9A916C" cy="3.888" r="1.512"/>
        <circle gorn="0.0.17" fill="none" id="connector17pin"  stroke-width="0.254" cx="18.288" stroke="#9A916C" cy="3.888" r="1.512"/>
        <circle gorn="0.0.18" fill="none" id="connector18pin"  stroke-width="0.254" cx="11.088" stroke="#9A916C" cy="3.888" r="1.512"/>
        <circle gorn="0.0.19" fill="none" id="connector19pin"  stroke-width="0.254" cx="3.888" stroke="#9A916C" cy="3.888" r="1.512"/>
        <rect height="25.489" x="0.044" width="71.296" y="0.065" fill="#333333" />
        <polygon fill="#CCCCCC"  points="71.979,21.976 71.979,6.747 72.62,5.749 72.62,4.065 71.34,0.065 71.34,25.375 72.62,29.375 72.62,25.977 "/>
        <polygon fill="#808080"  points="7.4,27.855 66.102,27.855 67.639,29.375 72.576,29.375 71.34,25.554 0.044,25.554 1.044,29.375 5.325,29.375 "/>
        <path d="M71.34,8.875c0,0-10.302-1-20.927-1S25.898,9.438,17.718,9.438S-0.038,8.875-0.038,8.875l0.082-8.81H71.34V8.875z" fill="#993D3D"  opacity="0.2"/>
        <path d="M71.34,25.554H0.044l0.027-6.929c0,0,9.93,0.896,19.729,0.896c11.688,0,25.477-1.583,29.738-1.583c7.834,0,21.802,0.667,21.802,0.667V25.554z" fill="#4C0E0E"  opacity="0.2"/>
        <g >
            <g >
                <rect height="14.549" x="64.723" width="4.986" y="5.536" fill="#FF1000" />
            </g>
            <g >
                <rect height="14.549" x="57.717" width="4.986" y="5.536" fill="#E6E6E6" />
            </g>
            <g >
                <rect height="14.549" x="50.712" width="4.986" y="5.536" fill="#FF1000" />
            </g>
            <g >
                <rect height="14.549" x="43.706" width="4.986" y="5.536" fill="#E6E6E6" />
            </g>
            <g >
                <rect height="14.549" x="36.702" width="4.986" y="5.536" fill="#FF1000" />
            </g>
            <g >
                <rect height="14.549" x="29.696" width="4.986" y="5.536" fill="#E6E6E6" />
            </g>
            <g >
                <rect height="14.549" x="22.691" width="4.986" y="5.536" fill="#FF1000" />
            </g>
            <g >
                <rect height="14.549" x="15.686" width="4.986" y="5.536" fill="#E6E6E6" />
            </g>
            <g >
                <rect height="14.549" x="8.68" width="4.986" y="5.536" fill="#F2F2F2" />
            </g>
            <g >
                <rect height="14.549" x="1.675" width="4.986" y="5.536" fill="#FF1000" />
            </g>
        </g>
    </g>
</svg>
